<svg width="155" height="73" viewBox="0 0 155 73" fill="none" xmlns="http://www.w3.org/2000/svg">
<g clip-path="url(#clip0_1195_267)">
<path d="M140.503 67.5651C140.302 59.9091 138.217 51.6647 136.845 46.2813C135.995 42.961 135.409 40.7286 135.706 40.4063C135.706 40.3982 135.979 41.2444 136.677 41.7279C137.254 42.139 138.129 42.3001 139.388 41.5023C140.046 41.0832 140.286 39.1168 139.051 38.0691C138.827 37.8757 137.736 37.2391 136.508 37.5695C136.01 37.7149 135.557 37.9869 135.193 38.3593C132.072 41.4701 135.995 49.3195 135.955 59.4094C134.286 57.6928 129.048 53.3329 129.048 53.3329C129.072 41.8569 129.08 37.0457 129.072 25.6744L129.064 23.5549C130.701 21.6288 133.42 20.2668 135.522 21.5079C135.53 21.5079 133.147 23.4017 135.458 25.5213C136.228 26.2305 138.289 25.9242 138.931 24.4011C139.083 24.0303 139.893 22.1768 137.663 20.2668C135.433 18.3568 132.04 18.7678 129.048 21.0888V21.0002C129.04 14.6255 128.992 10.2091 129 4.05205C129 4.02787 132.77 4.22129 134.776 4.22935C135.161 4.22935 135.474 4.455 135.762 4.83378C136.284 5.53491 136.717 6.79212 137.343 8.35556C137.519 8.79075 138.097 8.66987 138.105 8.29109C138.153 5.88951 138.097 1.69882 138.153 1.03798C138.209 0.377141 137.31 0.651147 136.813 0.586675C136.572 0.554439 125.302 0.578616 124.58 0.586675C123.754 0.578616 122.936 0.554439 122.07 0.514144C121.637 0.498026 121.155 0.755914 121.629 1.08633C121.837 1.22334 122.158 1.3684 122.471 1.5457C122.824 1.86 123.313 2.23877 123.425 2.8029V3.65716C123.425 7.96873 123.433 26.7946 123.441 36.143L123.433 36.135C123.554 50.3188 123.666 49.384 123.482 50.2302C122.92 51.2215 119.76 50.4478 120.129 51.7211C123.842 55.1381 129.105 58.9903 133.324 63.0924L136.677 66.7431C136.998 67.1461 137.31 67.5571 137.599 67.9681C139.733 71.0063 136.909 72.7471 137.904 72.8357C138.161 72.8599 139.316 72.3683 139.974 70.9419C140.24 70.3627 140.416 69.7456 140.495 69.1125C140.574 68.5999 140.577 68.0785 140.503 67.5651Z" fill="white"/>
<path d="M81.4653 0.852595C79.2595 0.852595 79.6365 0.8123 77.4306 0.8123C76.7247 0.796182 76.8691 1.15078 77.2621 1.27166C77.7434 1.53761 77.9038 1.60208 77.7434 2.02921C75.5616 7.872 73.2193 12.9492 72.5134 14.8511C70.9653 10.604 69.0883 5.95395 67.6364 2.33545C67.4439 1.86803 67.6765 1.52955 68.0455 1.4409C68.6391 1.29584 68.9199 0.844536 68.1578 0.852595H61.0589C60.5696 0.852595 60.5615 1.25555 61.0589 1.42478C61.6525 1.65044 61.7808 1.81968 62.3262 2.63364C63.73 4.71286 67.9573 14.843 68.7755 17.5025L68.8156 31.2351C68.7835 32.1941 67.6043 32.5568 67.1311 32.8952C66.6819 33.2095 67.1471 33.5319 67.5322 33.4513C70.1792 32.9275 72.3931 32.9275 75.2487 33.4513C75.6258 33.5641 75.9145 33.1934 75.3771 32.8549C74.9359 32.452 74.0135 32.0249 73.9974 31.2512L74.0135 17.5025C74.0135 17.5025 77.607 8.39583 80.2862 2.6014C80.4547 2.23874 80.7915 1.51343 81.3049 1.39255C82.091 1.21525 82.1231 0.8123 81.4653 0.852595Z" fill="white"/>
<path d="M38.3101 0.594789C35.5508 0.707615 33.1764 0.691497 30.032 0.594789C29.6229 0.490022 29.3101 0.852678 29.8956 1.19116C30.3689 1.59411 31.3555 2.02123 31.3636 2.80296L31.4117 42.0423C31.3716 43.0819 30.1363 44.1377 29.6229 44.7743C29.1416 45.3707 29.639 45.4352 30.0561 45.1289C30.9545 44.46 37.3636 41.0027 38.2459 40.6884C38.647 40.5836 38.9599 40.0356 38.3743 39.9792C37.5721 39.6891 36.9304 39.7777 36.9224 39.0685L36.9385 27.2621H36.9304C36.9304 16.9385 36.9465 3.39127 36.9465 2.77878C37.0267 1.852 38.2379 1.4974 38.7433 1.16698C39.2326 0.83656 38.7353 0.58673 38.3101 0.594789Z" fill="white"/>
<path d="M97.7408 1.2798C98.6071 0.127359 97.7007 0.377189 97.0911 0.723726C97.0269 0.844611 95.6793 1.22339 94.9814 0.94132C93.2007 0.224067 89.3103 0.643136 87.3932 2.25494C81.8022 6.95334 80.7113 14.6094 81.2648 21.7416C81.706 27.2943 83.5669 34.2009 88.8129 36.2237C91.5081 37.2714 94.9654 37.1746 97.2675 34.9342C99.0483 33.2015 100.548 28.2694 99.1125 25.4327C98.7355 24.6993 98.182 25.2312 98.198 25.9807C98.2461 28.0277 97.1713 30.5098 95.8718 31.9927C95.0616 32.9195 93.1124 33.8463 91.5242 33.0001C87.8023 31.0095 87.5295 25.7953 87.4172 21.6691C87.2408 15.4959 87.5135 4.86606 92.6231 3.79421C98.2943 2.60954 99.3691 11.1199 96.5296 9.07286C96.0723 8.7505 94.9012 8.53291 93.7622 9.33075C92.6231 10.1286 92.3825 11.9661 93.0001 13.2474C93.8424 14.9962 96.706 15.8747 98.4547 14.1662C99.5055 13.1427 99.8023 12.7478 100.211 11.136C101.046 7.86401 99.2007 5.04336 98.0296 3.34291C97.1552 2.0454 97.8691 1.1025 97.7408 1.2798Z" fill="white"/>
<path d="M57.0401 1.2798C57.9064 0.127359 57.008 0.377189 56.3904 0.723726C56.3262 0.844611 55.0829 1.30398 54.3931 1.02191C52.6123 0.304658 48.8422 0.627018 46.9251 2.23882C41.3342 6.92917 40.0107 14.6094 40.5722 21.7416C41.0133 27.2943 42.762 34.5958 48.1123 36.272C50.8636 37.1424 54.2567 36.272 56.4305 33.8946C58.6043 31.5172 59.5829 27.1009 58.131 24.796C57.9867 24.5703 57.6177 24.8927 57.6337 25.1264C57.8022 27.1653 57.1524 29.7201 55.7166 31.074C55.0829 31.6703 52.5722 33.0645 50.9278 32.3151C47.1016 30.5663 46.8289 25.8034 46.7166 21.6852C46.5401 15.512 46.8369 4.88218 51.9545 3.81033C58.0588 2.52895 58.9011 11.3052 55.8289 9.08898C55.3717 8.76662 54.1925 8.54903 53.0535 9.34687C51.9144 10.1447 51.6738 11.9822 52.2995 13.2636C53.1497 15.0124 56.0054 15.8908 57.7621 14.1823C58.8129 13.1588 59.1096 12.7639 59.5187 11.1521C60.3449 7.88013 58.508 5.05948 57.3369 3.35902C56.4465 2.0454 57.1685 1.1025 57.0401 1.2798Z" fill="white"/>
<path d="M116.511 30.4695C117.088 30.8805 117.963 31.0498 119.222 30.2439C119.88 29.8248 120.129 27.8503 118.885 26.8107C118.661 26.6173 117.562 25.9807 116.342 26.3111C115.844 26.4518 115.392 26.7246 115.035 27.1009C112.316 29.8167 114.947 36.135 115.645 44.4116C113.792 42.6064 112.043 41.6312 109.853 40.229L109.917 2.78682C109.933 1.85198 110.735 1.75527 111.337 1.23949C112.219 0.715657 111.53 0.506123 111.249 0.538359C108.104 0.643126 105.738 0.659244 102.987 0.538359C102.554 0.522241 102.072 0.876837 102.554 1.1992C103.211 1.64244 104.31 1.77945 104.342 2.81906C104.342 4.02791 104.479 37.497 104.262 38.6494C104.03 39.6165 102.441 39.0765 101.856 39.2941C101.391 39.4392 101.455 39.963 101.8 40.1323C101.888 40.2693 102.417 40.4869 102.522 40.5272C108.04 42.9207 110.768 44.1698 115.388 48.0623C115.398 48.0715 115.406 48.0825 115.412 48.0946C116.07 48.6426 118.059 50.4236 118.396 50.7138C118.564 50.8508 119.76 49.3195 118.957 44.8468L118.781 43.9361C118.099 40.5836 117.313 37.505 116.679 35.0229C115.829 31.7026 115.244 29.4783 115.54 29.1478C115.54 29.1398 115.821 29.9779 116.511 30.4695Z" fill="white"/>
<path d="M12.3448 53.9132C12.2964 53.9566 12.2332 53.9797 12.1683 53.9777C11.9678 53.9777 11.7673 53.7924 11.7673 53.6151V30.2439C11.8931 30.1121 12.0271 29.9883 12.1683 29.8732C13.8047 28.3984 16.163 27.8746 17.8154 29.3655C20.2459 31.5576 20.6389 35.5468 20.5828 38.9235C20.4785 45.4432 16.6764 50.0772 12.3448 53.9132ZM11.7673 5.28517C11.7673 5.14011 11.9838 4.89834 12.1683 4.75328C12.2268 4.69444 12.2982 4.65027 12.3769 4.62433C15.433 3.97961 18.6015 5.63171 19.7807 9.24215C22.0347 16.1729 18.2806 24.1271 12.3448 25.8195C12.2813 25.814 12.2205 25.7918 12.1683 25.7551C11.9919 25.6422 11.7673 25.4085 11.7673 25.2393V5.28517ZM26.3422 32.3473C25.6122 28.753 24.1122 26.432 20.655 25.8679C20.4464 25.8357 20.2298 25.4811 20.4143 25.2957C22.524 23.2487 24.8101 20.6618 25.7807 17.7283C28.3074 10.177 24.2807 0.917189 17.9277 0.925248C15.8662 0.925248 14.0052 0.917189 12.1683 0.901071C9.61751 0.884953 7.13087 0.868835 4.28327 0.876894C4.09075 0.876894 3.44904 0.852717 3.5854 0.860776C3.66562 0.860776 3.5854 1.45714 3.62551 1.4652C4.7084 1.7795 5.65493 3.06089 5.65493 4.05214V24.0546C5.65493 27.117 2.63085 29.301 0.834055 30.123C0.641541 30.2117 1.46775 30.8 1.98914 31.0015C3.06401 31.4205 4.67632 31.0982 5.18166 30.6146C4.97311 30.8081 4.69236 31.7751 4.17097 32.4924C4.00252 32.718 4.98915 32.6455 5.67097 33.9188C5.65493 43.6702 5.79931 52.0033 5.81536 61.5613C3.5453 63.9306 2.1255 67.6377 3.68968 70.9178C4.37952 72.3684 5.52659 72.8439 5.76723 72.8116C6.7298 72.6908 3.9223 70.9742 5.86349 67.7747C7.44371 65.1556 9.72179 62.5848 12.1683 60.1026C15.7138 56.5163 19.6523 53.1315 22.4598 50.1013C26.0614 46.2088 27.5213 38.1982 26.3422 32.3473Z" fill="white"/>
<path d="M145.26 66.2595H143.583V65.3489H148.035V66.2595H146.335V71.2723H145.26V66.2595Z" fill="white"/>
<path d="M153.65 68.8626C153.618 68.097 153.57 67.1783 153.578 66.3643H153.554C153.361 67.0896 153.121 67.8955 152.856 68.637L151.998 71.1997H151.163L150.377 68.6692C150.153 67.9116 149.944 67.1057 149.784 66.3563H149.768C149.744 67.138 149.704 68.0809 149.663 68.8868L149.535 71.2722H148.524L148.917 65.3489H150.337L151.107 67.7343C151.316 68.4274 151.5 69.1285 151.645 69.7894H151.669C151.829 69.1447 152.03 68.4194 152.254 67.7263L153.065 65.3569H154.46L154.805 71.2803H153.754L153.65 68.8626Z" fill="white"/>
</g>
<defs>
<clipPath id="clip0_1195_267">
<rect width="154" height="72.403" fill="white" transform="translate(0.805176 0.433594)"/>
</clipPath>
</defs>
</svg>
