<svg width="112" height="72" viewBox="0 0 112 72" fill="none" xmlns="http://www.w3.org/2000/svg">
<path d="M0.0305176 71.767L44.7739 0.17334H53.7135L8.97006 71.767H0.0305176Z" fill="white"/>
<path d="M111.84 21.0967C111.863 24.0323 111.28 26.941 110.127 29.6407C108.974 32.3404 107.275 34.773 105.139 36.786C103.002 38.799 100.472 40.3492 97.7089 41.3393C94.9452 42.3295 92.0069 42.7384 89.078 42.5404H70.8403V71.7424H62.3859V1.28418H90.1572C104.373 1.28418 111.84 10.7475 111.84 21.0967ZM102.985 21.7084C103.007 19.9574 102.664 18.2211 101.976 16.6108C101.288 15.0004 100.271 13.5516 98.9905 12.3574C97.7099 11.1631 96.1937 10.2498 94.5394 9.67589C92.885 9.10201 91.1289 8.88031 89.3838 9.02499H70.8684V34.8031H89.1026C90.8911 34.9275 92.686 34.6801 94.3741 34.0764C96.0623 33.4728 97.6072 32.5261 98.9114 31.2959C100.216 30.0657 101.251 28.5787 101.952 26.9286C102.653 25.2785 103.005 23.5011 102.985 21.7084Z" fill="white"/>
<path d="M18.2686 17.5708C18.2286 18.5812 17.9815 19.5726 17.5425 20.4835C17.1036 21.3944 16.4822 22.2055 15.7168 22.8663C14.9515 23.5272 14.0585 24.0238 13.0934 24.3253C12.1282 24.6268 11.1114 24.7268 10.106 24.6191H0.059082V0.17334H10.6051C15.1048 0.17334 17.214 2.83798 17.214 5.69596C17.2139 6.89789 16.8664 8.07417 16.2134 9.08326C15.5605 10.0923 14.6298 10.8912 13.5334 11.3838C14.8911 11.7547 16.0895 12.5608 16.9449 13.6784C17.8002 14.796 18.2653 16.1634 18.2686 17.5708ZM9.57866 10.4136C10.1508 10.4787 10.7302 10.4238 11.2799 10.2524C11.8296 10.081 12.3375 9.79683 12.7712 9.41806C13.2049 9.03928 13.5549 8.57422 13.7987 8.05257C14.0425 7.53093 14.1749 6.96417 14.1873 6.38849C14.1868 5.87988 14.0771 5.3773 13.8657 4.9147C13.6543 4.45211 13.3461 4.04028 12.9619 3.70703C12.5777 3.37379 12.1264 3.1269 11.6385 2.98303C11.1507 2.83917 10.6377 2.80169 10.1341 2.87313H2.98737V10.4136H9.57866ZM15.2032 17.49C15.2169 16.874 15.1006 16.2621 14.862 15.6941C14.6235 15.126 14.2679 14.6146 13.8186 14.1931C13.3692 13.7716 12.8361 13.4495 12.254 13.2477C11.6718 13.0459 11.0537 12.969 10.4399 13.022H2.98737V21.9299H10.1903C10.8194 22.0157 11.4596 21.9644 12.0669 21.7795C12.6743 21.5946 13.2345 21.2804 13.709 20.8587C14.1835 20.4369 14.5612 19.9174 14.8161 19.336C15.071 18.7545 15.1971 18.1248 15.1856 17.49H15.2032Z" fill="white"/>
</svg>
