<svg width="145" height="151" viewBox="0 0 145 151" fill="none" xmlns="http://www.w3.org/2000/svg">
<g clip-path="url(#clip0_1198_283)">
<path fill-rule="evenodd" clip-rule="evenodd" d="M136.916 103.476C131.062 95.6679 126.741 82.5035 123.566 68.267C129.666 56.2629 123.566 53.6192 120.617 53.0905C117.962 36.7132 116.172 20.2086 115.254 3.64453C115.465 -2.91563 106.701 2.75352 106.701 2.75352C58.7521 30.1006 5.80396 35.8921 5.80396 35.8921C-4.64607 38.1588 3.61663 44.3958 3.61663 44.3958C8.70401 49.5461 12.7051 56.0719 15.905 63.2539C13.4473 66.343 5.34683 77.9114 21.2775 78.5674C29.6827 109.199 27.4757 143.807 27.4757 143.807C28.5276 156.888 38.6041 147.581 38.6041 147.581C83.9187 115.534 131.013 113.282 131.013 113.282C143.483 113.282 136.916 103.476 136.916 103.476Z" fill="white"/>
<path fill-rule="evenodd" clip-rule="evenodd" d="M18.0628 36.6264C18.0628 36.6264 66.2922 31.628 112.978 15.3842C112.978 15.3842 114.753 14.5275 114.812 16.4466C114.871 18.3657 117.628 46.0407 118.419 54.4368C118.419 54.4368 123.826 53.1688 124.578 58.9065C124.578 58.9065 125.66 63.8903 119.899 68.8251C119.899 68.8251 122.715 92.3535 127.862 109.483C127.862 109.483 128.53 111.417 126.795 111.608C126.795 111.608 79.2687 115.657 31.5358 132.987C31.5358 132.987 29.781 133.805 29.9776 131.475C29.9776 131.475 32.2534 118.942 24.7575 73.8921C24.7575 73.8921 20.3337 75.6349 17.1338 75.0376C17.1338 75.0376 11.8498 73.8921 14.8629 69.8874C14.8629 69.8874 17.065 67.0235 23.6221 65.4324C23.6221 65.4324 20.6728 47.3185 16.7406 38.6434C16.7504 38.6483 15.6543 37.0083 18.0628 36.6264Z" fill="url(#paint0_linear_1198_283)"/>
<path fill-rule="evenodd" clip-rule="evenodd" d="M11.8351 37.2385C11.8351 37.2385 16.5833 46.506 21.0612 65.9074L20.2551 66.0298C20.2551 66.0298 14.8482 48.0334 9.44129 39.6374C9.44129 39.6276 7.63245 37.9778 11.8351 37.2385Z" fill="url(#paint1_linear_1198_283)"/>
<path fill-rule="evenodd" clip-rule="evenodd" d="M64.6554 25.5084C64.6554 25.5084 84.769 20.0155 112.157 7.94286C112.157 7.94286 113.868 7.1008 114.123 8.88771L114.423 10.7383C114.423 10.7383 101.84 16.3095 64.6554 25.5084Z" fill="url(#paint2_linear_1198_283)"/>
<path fill-rule="evenodd" clip-rule="evenodd" d="M29.432 137.09C29.432 137.09 46.5866 130.197 78.6297 121.938C78.6297 121.938 50.0715 130.985 30.8329 140.492C30.8329 140.492 29.1961 141.271 29.432 139.254V137.09Z" fill="url(#paint3_linear_1198_283)"/>
<path fill-rule="evenodd" clip-rule="evenodd" d="M121.379 70.896C121.379 70.896 125.178 93.2838 131.937 111.868L133.411 111.54C133.411 111.54 135.078 111.148 134.011 109.141C128.636 96.8036 124.407 84.0018 121.379 70.896Z" fill="url(#paint4_linear_1198_283)"/>
<path fill-rule="evenodd" clip-rule="evenodd" d="M113.932 62.9503C114.355 62.024 114.888 61.1513 115.519 60.3507L116.699 59.166C117.072 58.8509 117.527 58.6472 118.011 58.5785C119.108 58.5785 119.285 59.8612 118.572 62.4461C118.162 64.0573 117.405 65.5606 116.355 66.8521C115.847 67.5646 115.2 68.1674 114.453 68.6244C114.29 68.7087 114.111 68.7596 113.928 68.7739C113.745 68.7881 113.56 68.7656 113.386 68.7076C112.963 68.502 112.786 67.846 112.841 66.7493C112.952 65.4179 113.322 64.1209 113.932 62.9307V62.9503ZM112.496 71.0037C116.874 70.5271 120.299 68.2572 122.77 64.1938L123.236 63.2538C123.236 63.2538 124.333 60.806 123.797 58.9457C123.58 58.0893 123.056 57.3419 122.322 56.8454C121.364 56.2188 120.022 56.1111 118.341 56.4783C116.391 56.821 114.552 57.6281 112.983 58.8308C111.413 60.0336 110.159 61.5963 109.326 63.386C108.811 64.0638 108.438 64.838 108.23 65.6625C107.977 66.5202 107.917 67.4227 108.053 68.3062C108.368 70.4162 109.847 71.3317 112.511 71.0037H112.496Z" fill="#00377B"/>
<path fill-rule="evenodd" clip-rule="evenodd" d="M103.029 60.7717L102.936 60.7031V60.6787C102.603 60.0531 102.088 59.5425 101.458 59.214C100.828 58.8854 100.113 58.7544 99.4069 58.8379C98.7726 58.9058 98.1606 59.1096 97.6128 59.4352C97.0917 59.7485 96.7526 59.9688 96.669 60.1744C96.5068 60.429 96.5855 60.5954 96.8607 60.664C97.3818 60.729 97.8923 60.8606 98.3796 61.0556C98.7479 61.2665 99.0464 61.5799 99.2385 61.9573C99.4306 62.3347 99.5079 62.7598 99.461 63.1803C99.4082 65.8962 98.9849 68.5923 98.2026 71.1945C97.7111 72.2715 98.0257 72.7758 99.1316 72.7464L102.263 72.3401C103.467 72.0366 104.096 71.6596 104.15 71.1406L104.18 70.2154C104.23 67.965 104.102 65.7141 103.796 63.4839V63.3321C104.892 61.1927 106.283 59.9052 108.078 59.4156C108.435 59.3222 108.813 59.336 109.162 59.4553C109.512 59.5746 109.819 59.7941 110.044 60.0863C110.235 60.2478 110.373 60.3311 110.457 60.2478C110.948 60.1255 111.356 59.6506 111.769 58.8869C112.147 58.3721 112.312 57.7325 112.231 57.1C112.192 56.1894 111.523 55.7243 110.289 55.7781C107.832 55.9691 105.418 57.6189 103.079 60.6738L103.025 60.7423L103.029 60.7717Z" fill="#00377B"/>
<path fill-rule="evenodd" clip-rule="evenodd" d="M84.8476 50.5546C84.3561 49.5021 83.4271 49.0859 82.0311 49.272C79.8438 49.5706 78.3053 50.0357 77.4304 50.5938C77.2387 50.7309 77.2977 50.8778 77.627 50.961C78.4282 51.2205 79.0229 52.0233 79.4457 53.3843C81.3184 58.701 82.4293 65.2416 82.7586 72.9277C82.7586 73.7991 83.0142 74.3719 83.4271 74.5629C84.4102 75.1454 85.8848 74.8076 87.8509 73.5837C89.762 72.3544 91.4966 70.8721 93.0071 69.1777C94.8012 67.2977 95.8678 65.4815 96.2512 63.8365C96.7428 61.8783 96.0841 60.576 94.2851 59.9641C92.8028 59.5295 91.216 59.6125 89.7876 60.1991C88.684 60.5916 87.6527 61.1622 86.7351 61.8881L86.5975 61.7657C86.1355 57.5113 85.7914 54.9118 85.5702 53.9718L85.231 52.2241C85.1597 51.6613 85.0211 51.1091 84.8181 50.5791L84.8476 50.5546ZM87.615 71.2926L86.8482 63.8218C88.7062 62.3776 89.9792 62.2552 90.6477 63.3861C91.2228 64.3652 91.1688 65.7458 90.4708 67.518C89.7728 69.2903 88.8192 70.568 87.615 71.2926Z" fill="#00377B"/>
<path fill-rule="evenodd" clip-rule="evenodd" d="M93.9607 74.7538C91.6038 77.7567 88.8319 80.412 85.7275 82.6407C81.5975 85.4607 77.0096 87.5492 72.166 88.8141C63.9738 91.0367 56.6417 91.0367 50.1699 88.8141L49.8848 88.7456C49.7668 88.8288 49.7471 89.005 49.8012 89.3037C50.396 97.4402 56.2993 103.011 67.58 106.145C71.5101 107.243 75.6276 107.508 79.6669 106.923C83.5174 106.409 87.1542 104.859 90.1857 102.439C93.3173 99.8889 95.511 96.3764 96.4233 92.4516C97.598 87.8888 97.4358 82.626 95.9022 76.6044L95.7105 75.9777C95.6775 75.9272 95.6294 75.8882 95.573 75.8662C95.5166 75.8443 95.4547 75.8405 95.396 75.8553C95.0961 75.8945 95.0027 76.0708 95.0961 76.4135C95.5428 78.3794 95.8077 80.3819 95.8875 82.3959C95.9872 84.8974 95.7659 87.4014 95.2288 89.8471C93.887 95.9667 90.5347 100.128 85.2261 102.346C80.1627 104.413 74.5452 104.71 69.2906 103.188C66.4428 102.369 63.7459 101.1 61.3031 99.4279C59.618 98.3656 58.1393 97.0089 56.9383 95.4232C56.4682 94.8151 56.1134 94.1266 55.8913 93.3915L55.9651 93.3524C58.2545 93.5512 60.5571 93.5512 62.8465 93.3524C67.4722 93.0716 72.0283 92.0927 76.3588 90.4493C81.0078 88.5939 85.2635 85.8816 88.9028 82.4547C91.9405 79.5516 93.9066 76.9618 94.8405 74.6853C95.0027 74.372 95.0027 74.1419 94.7816 74.0586C94.5604 73.9754 94.4276 74.0586 94.3195 74.3181L93.9902 74.7293L93.9607 74.7538Z" fill="#00377B"/>
<path fill-rule="evenodd" clip-rule="evenodd" d="M18.0186 73.9606C19.5669 74.083 21.8034 73.6864 24.6543 72.815L30.2529 71.3855L31.5898 80.0802C31.8995 81.4803 32.2092 82.3126 32.5434 82.528L33.2267 82.8658L35.0109 82.7434C37.2966 82.528 38.4517 82.1314 38.4517 81.544L38.3632 80.8928L36.5544 69.7748L42.7379 68.2082L44.0011 76.5994L44.5959 79.4878C44.9301 80.4669 45.4905 80.9173 46.2572 80.8243C47.9924 80.7019 49.1426 80.3886 49.7373 79.899C49.8408 79.8193 49.9118 79.705 49.9371 79.5772C49.9624 79.4493 49.9403 79.3167 49.8749 79.2038L49.5997 78.5625C48.4353 74.9098 47.6271 71.1538 47.1862 67.3466L54.3135 66.2989C51.0104 69.7259 49.8897 72.6633 50.9563 75.1698C51.2749 76.0347 51.9132 76.7457 52.7406 77.1575C53.5622 77.4957 54.4687 77.5726 55.3359 77.3778C57.4593 76.9812 59.3714 75.6447 61.1409 73.3976C62.124 76.2469 64.1589 77.2015 67.2605 76.2322C67.4129 76.193 67.5014 76.149 67.5014 76.0119C67.5014 75.8748 67.4326 75.7279 67.2163 75.6055C66.1595 75.116 65.5647 73.9949 65.4861 72.252C65.4437 70.74 65.569 69.2278 65.8597 67.7431L66.3512 65.0701C66.3512 64.2672 65.9236 63.998 65.0781 64.1889C64.3752 64.3687 63.7016 64.6473 63.0776 65.0163C62.6195 65.2574 62.1822 65.5358 61.7701 65.8485C61.4845 66.2376 61.2775 66.6782 61.1606 67.1459C60.1775 70.4015 58.8012 72.7857 57.0219 74.3914C55.7439 75.5517 55.0557 75.6447 54.9279 74.6656C54.8904 73.6212 55.1457 72.5871 55.6652 71.6792C56.8669 69.0161 58.7272 66.7 61.0721 64.9477C61.7805 64.4332 62.5417 63.9951 63.343 63.6406C63.5298 63.5623 63.6183 63.4643 63.6183 63.3028C63.6183 63.1412 63.4462 62.9454 63.1267 62.8769L60.9492 62.7985C57.5085 62.9209 52.8389 63.6014 46.9208 64.8155L46.6456 60.1402C46.5571 56.4734 46.6456 53.8738 46.9208 52.4002C46.9837 52.2092 46.9837 52.0032 46.921 51.8121C46.8582 51.621 46.7359 51.4549 46.5718 51.3378C46.3064 51.0931 45.7657 51.0098 45.0038 51.0931C43.5283 51.2241 42.0983 51.6699 40.811 52.4002C40.5604 52.5373 40.4719 52.645 40.5604 52.7527L40.757 52.9191L41.0666 53.3255C41.3026 53.5703 41.4697 54.5249 41.5582 56.1356L42.4528 65.8338L36.2103 67.4445C35.8072 64.6246 35.532 62.0593 35.3255 59.7437L34.9372 54.3584C34.9864 53.1492 34.5931 52.5617 33.7673 52.5617C32.7098 52.6372 31.6711 52.8801 30.6903 53.2814C29.2867 53.7517 27.97 54.4479 26.7925 55.3425C26.4681 55.6019 26.414 55.8027 26.5909 55.9251L26.8515 56.0621L27.0137 56.1307C27.2734 56.2196 27.5031 56.379 27.6768 56.5909C27.8505 56.8028 27.9613 57.0588 27.9967 57.3301C28.6308 60.5319 29.1715 63.4056 29.5696 65.9807L29.4517 66.0248C24.1382 67.4396 20.1862 68.8985 17.5565 70.4308C17.5565 70.4308 16.1557 71.2631 16.3228 72.6388C16.4899 74.0145 18.0628 73.9753 18.0628 73.9753L18.0186 73.9606ZM29.9481 69.065C25.9569 70.1028 23.4156 70.7295 22.2605 70.8666C21.3807 71.0722 20.899 71.0134 20.8744 70.6903C20.84 70.4847 21.2086 70.1714 21.9754 69.7601C24.3976 68.5361 26.9612 67.6121 29.609 67.0088L29.663 66.9696L29.9481 69.065Z" fill="#00377B"/>
<path fill-rule="evenodd" clip-rule="evenodd" d="M80.0896 61.5746C78.9798 61.7367 77.8884 62.0056 76.8307 62.3775C73.9306 63.5672 72.3725 64.8253 72.166 66.2353C72.0797 66.6398 72.1086 67.0604 72.2496 67.4494C72.3354 67.6828 72.4706 67.895 72.6462 68.0716C72.8218 68.2482 73.0336 68.3849 73.2671 68.4726C73.9749 68.7174 75.6363 69.1923 78.3446 69.8336C80.006 70.2301 80.935 70.8421 81.0726 71.6841C81.8394 73.6424 80.994 75.8944 78.5167 78.4303C77.2189 79.9214 75.7318 81.238 74.0929 82.3468C72.965 83.023 71.7376 83.5186 70.4555 83.8155C68.8334 84.1827 67.3539 83.4043 66.0317 81.402L65.5942 80.7753C65.4016 80.5618 65.2887 80.2886 65.2747 80.0018C65.3091 79.8109 65.4222 79.7277 65.6434 79.6885L66.0317 79.7571C66.1916 79.8947 66.3793 79.9966 66.5822 80.0557C67.1934 80.327 67.868 80.4248 68.5316 80.3384C69.1951 80.252 69.8218 79.9848 70.3424 79.5661C71.5804 78.6526 72.7218 77.6159 73.7488 76.4721L75.0268 74.7978L75.6117 73.6767C75.7474 73.3939 75.8178 73.0844 75.8178 72.771C75.8178 72.4575 75.7474 72.1481 75.6117 71.8653C75.1791 71.224 74.1371 70.8029 72.5199 70.6561H72.6428C71.6991 70.5043 70.6521 70.3134 69.4282 70C68.4451 69.7406 67.8258 69.2804 67.5604 68.639C66.7149 66.2549 67.8061 63.8952 70.8192 61.5012C73.0655 59.6311 75.0268 58.5002 76.8012 58.1183C78.5756 57.7365 79.7013 58.5442 80.0699 60.478L80.178 61.5012L80.0699 61.5795L80.0896 61.5746Z" fill="#00377B"/>
<path fill-rule="evenodd" clip-rule="evenodd" d="M113.091 61.658C113.505 60.7239 114.034 59.8442 114.664 59.0388L115.854 57.8688C116.22 57.5487 116.673 57.3442 117.156 57.2813C118.262 57.2813 118.424 58.564 117.717 61.1537C117.304 62.7641 116.548 64.2669 115.5 65.5598C114.997 66.2833 114.343 66.8897 113.583 67.3369C113.256 67.5134 112.873 67.5539 112.516 67.4495C112.093 67.2146 111.912 66.5781 111.966 65.4913C112.076 64.1507 112.459 62.8464 113.091 61.658ZM111.617 69.7113C115.996 69.2462 119.412 66.9551 121.875 62.8966L122.366 61.9713C122.366 61.9713 123.458 59.5235 122.927 57.6485C122.707 56.7989 122.182 56.0588 121.452 55.5678C120.508 54.9265 119.171 54.8188 117.476 55.186C115.524 55.5292 113.684 56.3364 112.112 57.5389C110.54 58.7414 109.283 60.3039 108.446 62.0937C107.947 62.7824 107.58 63.5577 107.365 64.38C107.101 65.2425 107.042 66.1542 107.193 67.0432C107.493 69.1581 108.997 70.0687 111.651 69.7456L111.617 69.7113Z" fill="white"/>
<path fill-rule="evenodd" clip-rule="evenodd" d="M102.169 59.4892L102.086 59.4256V59.3962C101.748 58.7691 101.228 58.258 100.594 57.9296C99.9601 57.6012 99.2415 57.4708 98.532 57.5554C97.9021 57.6259 97.2951 57.8313 96.7526 58.1576C96.3832 58.3298 96.056 58.5805 95.7941 58.892C95.6565 59.1514 95.7253 59.313 95.9858 59.3815C96.5108 59.4536 97.0255 59.5867 97.5194 59.7781C97.8879 59.9856 98.1875 60.2959 98.3814 60.6708C98.5752 61.0456 98.6549 61.4687 98.6106 61.8881C98.559 64.6091 98.1273 67.3097 97.3277 69.912C96.8362 70.9744 97.1606 71.4786 98.2813 71.4688L101.403 71.0723C102.607 70.7737 103.236 70.3771 103.29 69.8582L103.319 68.9476C103.368 66.6924 103.24 64.4368 102.936 62.2014V62.0496C104.013 59.9102 105.438 58.6227 107.217 58.1331C107.571 58.0411 107.944 58.0552 108.289 58.1737C108.635 58.2922 108.937 58.5097 109.159 58.7989C109.365 58.9605 109.488 59.029 109.596 58.9605C110.088 58.8381 110.486 58.3632 110.909 57.5995C111.28 57.0872 111.447 56.4553 111.376 55.8273C111.322 54.902 110.663 54.4369 109.41 54.4957C106.952 54.6817 104.539 56.3315 102.199 59.3913L102.145 59.455L102.169 59.4892Z" fill="white"/>
<path fill-rule="evenodd" clip-rule="evenodd" d="M83.9727 49.2719C83.5106 48.2242 82.5767 47.8032 81.1808 48.0039C78.9787 48.3025 77.45 48.7529 76.5653 49.311C76.3834 49.4481 76.4276 49.5999 76.7668 49.6782C77.5631 49.9377 78.1529 50.7455 78.5855 52.0918C80.473 57.4182 81.5642 63.9588 81.8935 71.6743C81.8935 72.5311 82.1393 73.1038 82.5767 73.2948C83.5598 73.8823 85.0344 73.5396 87.0005 72.3157C88.9096 71.072 90.645 69.5822 92.1617 67.8851C93.9361 66.0052 95.0076 64.1938 95.4009 62.544C95.8924 60.5857 95.2239 59.2884 93.4347 58.6617C91.9529 58.2457 90.3743 58.3318 88.947 58.9065C87.845 59.309 86.8121 59.8787 85.8848 60.5955L85.7471 60.4878C85.2949 56.2335 84.9558 53.6339 84.7346 52.6548L84.4052 50.9266C84.3186 50.3627 84.172 49.8097 83.9678 49.2768L83.9727 49.2719ZM86.7499 70.0098L85.9732 62.544C87.846 61.0997 89.1191 60.9773 89.7875 62.1082C90.3774 63.0874 90.3086 64.463 89.6106 66.2353C88.9126 68.0075 87.9689 69.2901 86.7499 70.0098Z" fill="white"/>
<path fill-rule="evenodd" clip-rule="evenodd" d="M93.0858 73.4857C90.7282 76.4896 87.9545 79.1451 84.8476 81.3726C80.7268 84.1896 76.1466 86.2734 71.3108 87.5313C63.1185 89.7539 55.7881 89.7539 49.3195 87.5313L49.0344 87.4774C48.9164 87.546 48.8968 87.7222 48.941 88.0111C49.5456 96.1574 55.4489 101.758 66.7198 104.862C70.6492 105.964 74.7676 106.229 78.8067 105.64C82.6564 105.133 86.2937 103.587 89.3255 101.171C92.4585 98.615 94.6536 95.098 95.568 91.1688C96.7428 86.606 96.5511 81.3481 95.047 75.3362L94.8405 74.7096C94.8165 74.6538 94.7725 74.6088 94.7171 74.5835C94.6617 74.5582 94.5988 74.5543 94.5407 74.5725C94.2114 74.6166 94.1278 74.7928 94.2114 75.1306C94.6822 77.0973 94.949 79.1069 95.0077 81.1278C95.1068 83.6246 94.8954 86.124 94.3785 88.5692C93.0087 94.6855 89.6696 98.85 84.361 101.063C79.2976 103.13 73.6801 103.427 68.4255 101.905C65.5754 101.089 62.8765 99.819 60.4331 98.145C58.7535 97.0834 57.2772 95.7323 56.0732 94.1551C55.6015 93.5425 55.2466 92.8489 55.0262 92.1087L55.1 92.0696C57.3885 92.2808 59.6912 92.2907 61.9814 92.0989C66.606 91.8215 71.1609 90.8426 75.4888 89.1958C80.1375 87.3434 84.3908 84.6288 88.0229 81.1963C91.0852 78.2932 93.0415 75.7034 93.9558 73.4318C94.1229 73.1038 94.1229 72.8835 93.9312 72.8052C93.7395 72.7269 93.5478 72.8052 93.4642 73.0598L93.1103 73.4857H93.0858Z" fill="white"/>
<path fill-rule="evenodd" clip-rule="evenodd" d="M17.1633 72.6828C18.7067 72.8052 20.9432 72.4086 23.7941 71.5372L29.3976 70.1077L30.7346 78.7925C31.0442 80.1976 31.3441 81.0299 31.6881 81.2404L32.3566 81.5831L34.1507 81.4607C36.4364 81.2404 37.5915 80.8438 37.5915 80.2612L37.5079 79.5905L35.6696 68.5117L41.8678 66.9451L43.1163 75.3509L43.7209 78.2246C44.0551 79.2038 44.6155 79.6591 45.3725 79.5758C47.1076 79.4388 48.2627 79.1108 48.8574 78.6506C48.958 78.5655 49.0265 78.4488 49.0515 78.3197C49.0766 78.1907 49.0566 78.057 48.9951 77.9407L48.7198 77.2847C47.5509 73.6401 46.7441 69.89 46.3113 66.0883L53.4385 65.0358C50.1305 68.4627 49.0147 71.4001 50.0715 73.9067C50.3959 74.7678 51.0301 75.4779 51.8509 75.8992C52.6737 76.24 53.5831 76.3154 54.4511 76.1146C56.5745 75.7181 58.4964 74.3962 60.2512 72.1345C61.2343 74.9837 63.2742 75.9531 66.3807 74.969C66.533 74.9299 66.6264 74.876 66.6264 74.7683C66.6217 74.6764 66.591 74.5877 66.538 74.5124C66.485 74.4371 66.4117 74.3782 66.3266 74.3424C65.2796 73.8528 64.6799 72.7366 64.6013 70.9938C64.5586 69.4799 64.6856 67.9659 64.9798 66.48L65.4418 63.8119C65.4418 63.009 65.024 62.7348 64.1786 62.9258C63.475 63.1034 62.7999 63.3786 62.1731 63.7433C61.5292 64.1252 61.1065 64.4091 60.8656 64.5854C60.5824 64.9819 60.3742 65.4265 60.2512 65.8974C59.2927 69.1383 57.8968 71.5078 56.1125 73.1185C54.8394 74.2885 54.1464 74.3963 54.0284 73.4024C53.9964 72.3608 54.2496 71.3302 54.7608 70.421C55.9576 67.7549 57.8188 65.4377 60.1677 63.6895C60.8752 63.171 61.6385 62.7326 62.4435 62.3823C62.5205 62.3643 62.589 62.3204 62.6374 62.258C62.6857 62.1956 62.711 62.1185 62.7089 62.0396C62.7089 61.834 62.5319 61.6872 62.2174 61.6186L60.0546 61.5354C56.6139 61.6725 51.9443 62.3383 46.0213 63.5524L45.746 58.8771C45.6575 55.2151 45.746 52.6106 46.0213 51.1273C46.0999 50.6377 46.0213 50.2803 45.6772 50.0894C45.3331 49.8985 44.8563 49.7516 44.0994 49.8446C42.6288 49.9761 41.2022 50.413 39.9115 51.1273C39.651 51.2741 39.5674 51.3867 39.651 51.4944L39.8574 51.656L40.1622 52.0672C40.3981 52.312 40.5702 53.2667 40.6537 54.8724L41.5532 64.5756L35.3009 66.1814C34.8929 63.3468 34.6275 60.7962 34.426 58.4854L34.0328 53.0757C34.0868 51.8616 33.6887 51.2741 32.8629 51.2741C31.8062 51.3484 30.7687 51.5931 29.7908 51.9987C28.3839 52.4658 27.0661 53.1659 25.8929 54.0695C25.5685 54.3143 25.5095 54.5199 25.6865 54.657L25.9372 54.7794L26.1092 54.8479C26.3683 54.9365 26.5975 55.0951 26.7711 55.3061C26.9448 55.5171 27.056 55.7721 27.0923 56.0425C27.7362 59.2589 28.272 62.1229 28.6554 64.7127H28.5423C23.2337 66.1194 19.2703 67.588 16.6521 69.1187C16.6521 69.1187 15.2414 69.951 15.4085 71.3414C15.5756 72.7317 17.1633 72.6632 17.1633 72.6632V72.6828ZM29.0928 67.7627C25.1016 68.7956 22.5554 69.4223 21.4003 69.5594C20.5155 69.765 20.0437 69.7111 20.0044 69.3831C19.9699 69.1775 20.3484 68.8642 21.1103 68.4578C23.5345 67.2304 26.1018 66.3063 28.7537 65.7065L28.8028 65.6624L29.0928 67.7627Z" fill="white"/>
<path fill-rule="evenodd" clip-rule="evenodd" d="M79.2294 60.297C78.1199 60.4608 77.0287 60.7297 75.9705 61.0999C73.0655 62.2993 71.5123 63.5477 71.3058 64.943C71.2192 65.3508 71.2481 65.7745 71.3894 66.1669C71.4768 66.4001 71.6133 66.6121 71.7896 66.7885C71.9659 66.965 72.178 67.1019 72.4118 67.1901C73.1196 67.4495 74.781 67.8999 77.4844 68.5511C79.1311 68.9623 80.0748 69.5596 80.2124 70.4065C80.9792 72.3403 80.1141 74.6168 77.6466 77.1478C76.3565 78.6534 74.8685 79.979 73.2228 81.0888C72.1018 81.7678 70.8787 82.2637 69.6002 82.5575C67.9732 82.9393 66.4937 82.1511 65.1764 80.1586L64.7438 79.5222C64.5459 79.3092 64.4293 79.0337 64.4145 78.7438C64.4305 78.6564 64.4766 78.5774 64.5447 78.5202C64.6129 78.463 64.699 78.4313 64.7881 78.4305L65.1764 78.499C65.3349 78.6361 65.5209 78.7379 65.722 78.7976C66.3354 79.0665 67.011 79.163 67.6756 79.0767C68.3402 78.9904 68.9684 78.7246 69.4921 78.3081C70.7242 77.393 71.8605 76.3564 72.8837 75.214L74.1764 73.5397L74.7515 72.4284C74.8872 72.1456 74.9576 71.8361 74.9576 71.5227C74.9576 71.2093 74.8872 70.8998 74.7515 70.617C74.3337 69.9757 73.2769 69.5645 71.6647 69.4029H71.7875C70.7077 69.2403 69.6378 69.0181 68.5827 68.7371C67.5997 68.4923 66.9754 68.0272 66.7051 67.3712C65.8596 65.0148 66.9476 62.6404 69.9689 60.2481C72.2152 58.3828 74.1813 57.2519 75.941 56.8701C77.7007 56.4882 78.846 57.2911 79.2195 59.2395L79.3424 60.2481L79.2195 60.3313L79.2294 60.297Z" fill="white"/>
</g>
<defs>
<linearGradient id="paint0_linear_1198_283" x1="43.3031" y1="129.937" x2="113.509" y2="-6.49919" gradientUnits="userSpaceOnUse">
<stop stop-color="#1160A6"/>
<stop offset="0.2" stop-color="#0F69A5"/>
<stop offset="0.53" stop-color="#0A81A1"/>
<stop offset="0.94" stop-color="#01A99B"/>
<stop offset="1" stop-color="#00AF9A"/>
</linearGradient>
<linearGradient id="paint1_linear_1198_283" x1="-111.376" y1="6447.61" x2="4850.18" y2="2442.44" gradientUnits="userSpaceOnUse">
<stop stop-color="#1160A6"/>
<stop offset="0.2" stop-color="#0F69A5"/>
<stop offset="0.53" stop-color="#0A81A1"/>
<stop offset="0.94" stop-color="#01A99B"/>
<stop offset="1" stop-color="#00AF9A"/>
</linearGradient>
<linearGradient id="paint2_linear_1198_283" x1="4099.34" y1="4800.24" x2="5216.47" y2="-1257.84" gradientUnits="userSpaceOnUse">
<stop stop-color="#1160A6"/>
<stop offset="0.2" stop-color="#0F69A5"/>
<stop offset="0.53" stop-color="#0A81A1"/>
<stop offset="0.94" stop-color="#01A99B"/>
<stop offset="1" stop-color="#00AF9A"/>
</linearGradient>
<linearGradient id="paint3_linear_1198_283" x1="5783.34" y1="5511.53" x2="7029.66" y2="-837.396" gradientUnits="userSpaceOnUse">
<stop stop-color="#1160A6"/>
<stop offset="0.2" stop-color="#0F69A5"/>
<stop offset="0.53" stop-color="#0A81A1"/>
<stop offset="0.94" stop-color="#01A99B"/>
<stop offset="1" stop-color="#00AF9A"/>
</linearGradient>
<linearGradient id="paint4_linear_1198_283" x1="2761" y1="13704.2" x2="9197.85" y2="9754.4" gradientUnits="userSpaceOnUse">
<stop stop-color="#1160A6"/>
<stop offset="0.2" stop-color="#0F69A5"/>
<stop offset="0.53" stop-color="#0A81A1"/>
<stop offset="0.94" stop-color="#01A99B"/>
<stop offset="1" stop-color="#00AF9A"/>
</linearGradient>
<clipPath id="clip0_1198_283">
<rect width="144" height="150.316" fill="white" transform="translate(0.515015 0.477051)"/>
</clipPath>
</defs>
</svg>
