<svg width="162" height="74" viewBox="0 0 162 74" fill="none" xmlns="http://www.w3.org/2000/svg">
<g clip-path="url(#clip0_1199_303)">
<path d="M161.015 0.714355H0.0150146V73.2258H161.015V0.714355Z" fill="#ED1B24"/>
<path d="M139.046 11.0107H148.056V53.5063H155.695V64.2276H139.046V11.0107Z" fill="white"/>
<path d="M153.051 17.2448C154.944 17.2448 156.479 15.7175 156.479 13.8335C156.479 11.9494 154.944 10.4221 153.051 10.4221C151.158 10.4221 149.623 11.9494 149.623 13.8335C149.623 15.7175 151.158 17.2448 153.051 17.2448Z" stroke="white" stroke-width="1.67"/>
<path d="M151.711 15.5877V12.0087H153.305C153.553 11.9975 153.802 12.0305 154.038 12.1062C154.202 12.174 154.34 12.293 154.43 12.4454C154.528 12.6089 154.58 12.7965 154.579 12.9873C154.584 13.2256 154.496 13.4567 154.332 13.6306C154.117 13.8281 153.84 13.9452 153.548 13.962C153.652 14.0066 153.749 14.0671 153.834 14.1413C153.984 14.2831 154.116 14.4428 154.226 14.6169L154.845 15.5877H154.25L153.776 14.8431C153.669 14.6737 153.554 14.5097 153.431 14.3518C153.366 14.2593 153.285 14.1788 153.192 14.114C153.125 14.0697 153.05 14.0367 152.972 14.0165C152.885 14.0083 152.797 14.0083 152.71 14.0165H152.158V15.6033L151.711 15.5877ZM152.189 13.5877H153.211C153.388 13.6017 153.565 13.5859 153.736 13.5409C153.852 13.5028 153.951 13.4273 154.018 13.3265C154.08 13.2311 154.113 13.1201 154.112 13.0068C154.115 12.928 154.099 12.8498 154.067 12.7777C154.035 12.7056 153.988 12.6413 153.928 12.5896C153.76 12.4668 153.553 12.4086 153.345 12.4259H152.205L152.189 13.5877Z" fill="white"/>
<path d="M6.63553 64.0288V11.0068H18.7797L23.0889 33.2293L27.9857 11.0068H39.7381V58.7656L47.3772 11.0068H59.3254L66.7686 58.7656V11.2018H82.6344C82.6344 11.2018 88.1188 12.1764 90.861 19.7789L89.6858 11.0068H99.2836L103.789 38.4925L108.49 11.2018H135.52V21.1434H127.489V32.0597H135.128V43.1709H127.685V53.3075H135.52V64.0288H118.087V12.9562L109.077 64.0288H98.3042L92.6239 30.1103C92.6239 30.1103 91.6445 39.4672 86.356 43.7557L93.2115 64.0288H83.8096L77.1499 46.2898V64.0288H58.1502L57.1708 58.9605H49.9235L48.3565 64.0288H30.3362V44.5354L25.6352 64.0288H20.7384L16.4292 44.7304V63.8339L6.63553 64.0288ZM56.1915 48.6291L53.4492 32.4495L51.0988 48.6291H56.1915ZM76.954 36.3482C83.4179 35.9584 82.8302 27.9661 82.8302 27.9661C81.8509 20.1687 76.954 20.5586 76.954 20.5586V36.3482Z" fill="white"/>
</g>
<defs>
<clipPath id="clip0_1199_303">
<rect width="161" height="72.5115" fill="white" transform="translate(0.0150146 0.714355)"/>
</clipPath>
</defs>
</svg>
