<svg width="215" height="36" viewBox="0 0 215 36" fill="none" xmlns="http://www.w3.org/2000/svg">
<g clip-path="url(#clip0_1199_331)">
<path d="M71.8468 30.9559H67.2094L72.7764 8.7478H85.6449L82.4693 21.425L80.4518 22.086L80.8984 30.9559H76.2636L76.0039 23.5259L73.5112 24.338L71.8468 30.9559ZM78.4369 19.0422L80.0805 12.4859H76.4765L74.5135 20.3207L78.4369 19.0397" fill="white"/>
<path d="M123.845 30.9586H118.743L127.608 8.74536H135.634L133.73 30.9586H128.724L129.179 26.7568L124.702 28.2043L123.845 30.9586ZM129.597 22.929L130.682 12.9164L126.411 23.9641L129.597 22.929Z" fill="white"/>
<path d="M150.042 30.9584H144.176L143.068 16.0241L139.323 30.9584H134.977L140.541 8.7478H146.43L147.542 23.6078L151.265 8.7478H155.612L150.042 30.9584Z" fill="white"/>
<path d="M185.529 30.9559H180.899L186.466 8.7478H199.332L196.152 21.425L194.129 22.086L194.575 30.9559H189.946L189.686 23.5259L187.193 24.338L185.529 30.9559ZM192.119 19.0422L193.763 12.4859H190.161L188.209 20.3207L192.132 19.0397" fill="white"/>
<path d="M59.9624 8.7478L54.8524 29.1394L56.3947 30.9584H64.9634L65.9059 27.2178H59.9261L61.3464 21.5915H66.9134L67.8585 17.8534H62.2941L63.6495 12.4859H69.6164L70.559 8.7478H59.9624Z" fill="white"/>
<path d="M173.652 8.7478L168.545 29.1394L170.093 30.9584H178.656L179.599 27.2178H173.616L175.036 21.5915H180.606L181.549 17.8534H175.984L177.342 12.4859H183.309L184.257 8.7478H173.652Z" fill="white"/>
<path d="M171.129 8.7478H157.832L152.719 29.1394L154.264 30.9584H165.559L168.875 17.7202L162.077 19.9338L161.041 24.0716L163.232 23.2517L162.238 27.2178H157.795L161.514 12.4859H165.93L165.105 15.7909L169.739 14.2844L171.129 8.7478Z" fill="white"/>
<path d="M5.5335 30.956H0.805178L7.4887 4.28735H20.6402L16.9843 18.8733L7.80808 21.8555L5.5335 30.956ZM11.316 7.89732L8.95316 17.3232L12.8298 16.0627L14.8785 7.89732H11.316Z" fill="white"/>
<path d="M108.191 30.956H103.468L110.151 4.28735H123.308L119.66 18.8733L117.445 19.5932L118.091 30.956H113.418L112.872 21.0766L110.486 21.8453L108.191 30.956ZM113.973 7.89732L111.61 17.3258L115.482 16.0652L117.531 7.89988H113.973" fill="white"/>
<path d="M33.6619 30.9584L36.7778 8.7478H41.0777L38.8135 24.397L45.9462 8.99376H49.2205L48.1091 24.1997L53.6372 8.7478H58.1474L50.0332 30.9584H43.7677L44.4922 20.7358L39.821 30.9584H33.6619Z" fill="white"/>
<path d="M24.2858 8.74536H35.0563L29.9567 29.0139L26.9005 30.9586H16.13L21.2297 10.69L24.2858 8.74536ZM25.758 27.2179L29.4685 12.486H25.4283L21.7178 27.2179H25.758Z" fill="white"/>
<path d="M204.38 8.7478H214.805L213.263 14.8917H208.638L209.238 12.4859H205.517L204.64 15.9729L211.63 21.4173L209.724 29.0164L206.681 30.9584H196.255L197.86 24.5584H202.49L201.82 27.2178H205.541L206.478 23.4516L199.488 18.0507L201.337 10.6899L204.38 8.7478Z" fill="white"/>
<path fill-rule="evenodd" clip-rule="evenodd" d="M88.3947 18.617L90.5784 20.5923C89.2801 17.0054 88.3168 12.9394 87.5092 8.47115L90.1058 10.7309L90.1054 10.7289L87.517 8.47628L89.673 8.37716C89.2287 5.65179 88.9759 2.89841 88.9166 0.136719L96.148 9.38837C95.1683 12.3426 94.4729 15.3813 94.0709 18.4643L94.0733 18.4607C94.4752 15.3785 95.1703 12.3405 96.1494 9.38686L88.9243 0.136719L98.207 1.28197C100.651 3.86281 103.246 6.27735 105.937 8.61506L105.942 8.61464L105.94 8.61774L105.942 8.61975L105.938 8.62007C103.991 11.2226 102.381 14.0551 101.146 17.0515L99.4897 17.3821L99.4885 17.3823C98.6107 19.3606 97.958 21.4288 97.5423 23.5491L96.6049 23.7617L96.6049 23.7643L96.6035 23.7646L96.6042 23.7619L93.2052 24.5588L96.6035 23.7646C95.3921 28.2562 95.0625 32.1488 94.9432 35.8009C93.5828 31.3341 92.3568 27.194 91.6783 23.2276L91.6507 23.2031C92.3284 27.1769 93.5592 31.3249 94.9224 35.8008C92.0662 30.1412 89.8487 24.7122 88.3739 18.617H88.3947ZM94.2282 18.4363L94.0681 18.4684L94.0702 18.4653L92.3959 17.0131L92.3959 17.0132L94.0681 18.4685L94.2282 18.4363ZM93.6319 32.4471C91.6614 28.2644 90.0763 23.9152 88.8958 19.4522L88.8984 19.442L91.2353 21.5531L90.851 20.4898C89.5449 16.8568 88.6543 13.0214 87.9429 9.21672L90.555 11.4867L90.3966 10.6771C89.7483 7.48557 89.361 4.24778 89.2385 0.995019L95.8416 9.44987C94.9356 12.2058 94.277 15.035 93.8734 17.9047L92.1129 16.3675L92.1363 17.0234C92.2222 19.3004 92.4406 21.5708 92.7906 23.8231L91.2535 22.4524L91.3937 23.2543C91.9593 26.3586 92.7066 29.428 93.6319 32.4471Z" fill="white"/>
<path d="M97.5423 23.5464C97.9589 21.4262 98.612 19.3579 99.4897 17.3795L101.146 17.049C102.382 14.051 103.993 11.2175 105.942 8.61463C103.25 6.28058 100.653 3.86454 98.207 1.28197L88.9243 0.136719L96.148 9.38838C95.1694 12.3434 94.4739 15.3826 94.0707 18.4658L92.3959 17.0131C92.5028 19.5422 92.7629 22.0626 93.1749 24.561L91.6533 23.2031C92.331 27.1769 93.5592 31.3249 94.9198 35.8008C95.0418 32.1499 95.3716 28.2529 96.5842 23.7591L97.5215 23.5413" fill="white"/>
<path d="M89.8565 18.4197L88.3947 18.617L90.5784 20.5923C90.3187 19.8852 90.0798 19.1627 89.8487 18.4197" fill="white"/>
</g>
<defs>
<clipPath id="clip0_1199_331">
<rect width="214" height="35.6667" fill="white" transform="translate(0.805176 0.136719)"/>
</clipPath>
</defs>
</svg>
