<svg width="1009" height="424" viewBox="0 0 1009 424" fill="none" xmlns="http://www.w3.org/2000/svg">
<g clip-path="url(#clip0_2229_288)">
<path d="M1007.5 212C666.8 212 746 422 410.3 422C74.6 422 -0.0999756 422 -0.0999756 422" stroke="white" stroke-width="2" stroke-miterlimit="10"/>
<path d="M1007.5 212C666.8 212 746 423 410.3 423C74.6 423 -0.0999756 423 -0.0999756 423" stroke="white" stroke-width="2" stroke-miterlimit="10"/>
<path d="M1007.5 212C666.8 212 746 422 410.3 422C74.6 422 -0.0999756 422 -0.0999756 422" stroke="white" stroke-width="2" stroke-miterlimit="10"/>
<path d="M1007.5 212C666.8 212 746 382 410.3 382C74.6 382 -0.0999756 382 -0.0999756 382" stroke="white" stroke-width="2" stroke-miterlimit="10"/>
<path d="M1007.5 212C666.8 212 746 422 410.3 422C74.6 422 -0.0999756 422 -0.0999756 422" stroke="white" stroke-width="2" stroke-miterlimit="10"/>
<path d="M1007.5 212C666.8 212 746 423 410.3 423C74.6 423 -0.0999756 423 -0.0999756 423" stroke="white" stroke-width="2" stroke-miterlimit="10"/>
<path d="M1008.5 212C667.8 212 747 332 411.3 332C75.6 332 0.900024 332 0.900024 332" stroke="white" stroke-width="2" stroke-miterlimit="10"/>
<path d="M1008.5 212C667.8 212 747 292 411.3 292C75.6 292 0.900024 292 0.900024 292" stroke="white" stroke-width="2" stroke-miterlimit="10"/>
<path d="M1008.5 212C667.8 212 747 252 411.3 252C75.6 252 0.900024 252 0.900024 252" stroke="white" stroke-width="2" stroke-miterlimit="10"/>
<path d="M1007.5 212C666.8 212 746 1.99998 410.3 1.99995C74.6 1.99992 -0.0999572 1.99991 -0.0999572 1.99991" stroke="white" stroke-width="2" stroke-miterlimit="10"/>
<path d="M1007.5 212C666.8 212 746 0.999977 410.3 0.999948C74.6 0.999918 -0.0999571 0.999912 -0.0999571 0.999912" stroke="white" stroke-width="2" stroke-miterlimit="10"/>
<path d="M1007.5 212C666.8 212 746 1.99998 410.3 1.99995C74.6 1.99992 -0.0999572 1.99991 -0.0999572 1.99991" stroke="white" stroke-width="2" stroke-miterlimit="10"/>
<path d="M1007.5 212C666.8 212 746 42 410.3 41.9999C74.6 41.9999 -0.0999607 41.9999 -0.0999607 41.9999" stroke="white" stroke-width="2" stroke-miterlimit="10"/>
<path d="M1007.5 212C666.8 212 746 1.99998 410.3 1.99995C74.6 1.99992 -0.0999572 1.99991 -0.0999572 1.99991" stroke="white" stroke-width="2" stroke-miterlimit="10"/>
<path d="M1007.5 212C666.8 212 746 0.999977 410.3 0.999948C74.6 0.999918 -0.0999571 0.999912 -0.0999571 0.999912" stroke="white" stroke-width="2" stroke-miterlimit="10"/>
<path d="M1008.5 212C667.8 212 747 92 411.3 91.9999C75.6 91.9999 0.900035 91.9999 0.900035 91.9999" stroke="white" stroke-width="2" stroke-miterlimit="10"/>
<path d="M1008.5 212C667.8 212 747 132 411.3 132C75.6 132 0.900031 132 0.900031 132" stroke="white" stroke-width="2" stroke-miterlimit="10"/>
<path d="M1008.5 212C667.8 212 747 172 411.3 172C75.6 172 0.900028 172 0.900028 172" stroke="white" stroke-width="2" stroke-miterlimit="10"/>
<path d="M1008.5 212C667.8 212 747 212 411.3 212C75.6 212 0.900024 212 0.900024 212" stroke="white" stroke-width="2" stroke-miterlimit="10"/>
</g>
<defs>
<clipPath id="clip0_2229_288">
<rect width="1008.5" height="424" fill="white" transform="translate(1008.5 424) rotate(-180)"/>
</clipPath>
</defs>
</svg>
